<?xml version="1.0" encoding="UTF-8"?>
<svg width="17px" height="18px" viewBox="0 0 17 18" version="1.1" xmlns="http://www.w3.org/2000/svg" xmlns:xlink="http://www.w3.org/1999/xlink">
    <!-- Generator: sketchtool 57.1 (101010) - https://sketch.com -->
    <title>E3DC3394-397D-4994-B12B-47234FB13863</title>
    <desc>Created with sketchtool.</desc>
    <g id="Product-Pages" stroke="none" stroke-width="1" fill="none" fill-rule="evenodd">
        <g id="Home---Portrait-Version-A-Copy-6" transform="translate(-77.000000, -637.000000)">
            <g id="Group-20" transform="translate(63.000000, 553.000000)">
                <g id="Group-17-Copy" transform="translate(14.000000, 84.000000)">
                    <g id="001-settings" transform="translate(0.000000, 0.500000)">
                        <path d="M15.6392002,7.48800011 C14.1532002,7.20200011 13.4720002,5.46640008 14.3672002,4.24600006 L14.9952002,3.38800005 L13.6376002,2.03040003 L12.7936002,2.60200004 C11.5408002,3.45200005 9.83120015,2.70520004 9.60160014,1.21000002 L9.44080014,0.160000002 L7.52040011,0.160000002 L7.27200011,1.45360002 C6.9920001,2.90520004 5.31720008,3.59920005 4.09200006,2.76920004 L3.00320004,2.03040003 L1.64520002,3.38800005 L2.27360003,4.24600006 C3.16880005,5.46640008 2.48600004,7.20200011 1.00160001,7.48800011 L0,7.68040011 L0,9.60080014 L1.05000002,9.76160015 C2.54520004,9.99120015 3.29200005,11.7008002 2.44200004,12.9536002 L1.87040003,13.7976002 L3.22800005,15.1552002 L4.08600006,14.5272002 C5.30640008,13.6320002 7.0420001,14.3132002 7.32800011,15.7992002 L7.52040011,16.8008003 L9.44080014,16.8008003 L9.55320014,16.0616002 C9.78920015,14.5336002 11.5608002,13.7992002 12.8080002,14.7132002 L13.4108002,15.1552002 L14.7688002,13.7976002 L14.1968002,12.9536002 C13.3484002,11.7008002 14.0936002,9.99120015 15.5892002,9.76160015 L16.6408002,9.60080014 L16.6408002,7.68040011 L15.6392002,7.48800011 Z M8.47960013,10.0804002 C7.68440011,10.0804002 7.0408001,9.43520014 7.0408001,8.63960013 C7.0408001,7.84440012 7.68440011,7.20080011 8.47960013,7.20080011 C9.27520014,7.20080011 9.92040015,7.84440012 9.92040015,8.63960013 C9.92040015,9.43520014 9.27520014,10.0804002 8.47960013,10.0804002 Z" id="Fill-1" fill="#C7CAC7"/>
                        <path d="M8.47960013,5.60080008 C6.8016001,5.60080008 5.44080008,6.9616001 5.44080008,8.63960013 C5.44080008,10.3192002 6.8016001,11.6804002 8.47960013,11.6804002 C10.1592002,11.6804002 11.5204002,10.3192002 11.5204002,8.63960013 C11.5204002,6.9616001 10.1592002,5.60080008 8.47960013,5.60080008 Z M8.47960013,10.0804002 C7.68440011,10.0804002 7.0408001,9.43520014 7.0408001,8.63960013 C7.0408001,7.84440012 7.68440011,7.20080011 8.47960013,7.20080011 C9.27520014,7.20080011 9.92040015,7.84440012 9.92040015,8.63960013 C9.92040015,9.43520014 9.27520014,10.0804002 8.47960013,10.0804002 Z" id="Fill-2" fill="#556080"/>
                    </g>
                </g>
            </g>
        </g>
    </g>
</svg>