<svg xmlns="http://www.w3.org/2000/svg" viewBox="0 0 31.83 32.52"><defs><style>.cls-1{fill:#ffd039;}.cls-2{fill:#f4b70c;}.cls-3{fill:#ffbb64;}.cls-4{fill:#ffae47;}.cls-5{fill:#ffdf65;}.cls-6{fill:#ffcd2c;}.cls-7{fill:#ffa035;}.cls-8{fill:#f78819;}</style></defs><title>Asset 9002-cup</title><g id="Layer_2" data-name="Layer 2"><g id="Livello_1" data-name="Livello 1"><path class="cls-1" d="M31.05,5.85h0a3.61,3.61,0,0,0-2.83-1.36H24.84a.47.47,0,0,0-.47.48V7.05a.47.47,0,0,0,.47.48h3.38a.56.56,0,0,1,.45.22.58.58,0,0,1,.11.46,9,9,0,0,1-1.93,4,5.79,5.79,0,0,1-2.37,1.58.46.46,0,0,0-.31.34,8.32,8.32,0,0,1-.84,2.26.46.46,0,0,0,0,.5.46.46,0,0,0,.39.2h.08a9,9,0,0,0,5.27-2.83,11.8,11.8,0,0,0,2.64-5.33A3.61,3.61,0,0,0,31.05,5.85Z"/><path class="cls-2" d="M27,12.28V12l-.15.16a5.79,5.79,0,0,1-2.37,1.58.46.46,0,0,0-.31.34,8.32,8.32,0,0,1-.84,2.26.46.46,0,0,0,0,.5.46.46,0,0,0,.39.2h.08a10,10,0,0,0,2.22-.65A9.45,9.45,0,0,0,27,12.28Z"/><path class="cls-2" d="M24.37,5V7.05a.47.47,0,0,0,.47.48H27v-3H24.84A.47.47,0,0,0,24.37,5Z"/><path class="cls-3" d="M19.5,28.05c-.14-.11-1.42-1.18-1.58-7a.49.49,0,0,0-.17-.36.54.54,0,0,0-.39-.1,8.66,8.66,0,0,1-1.44.13h0a8.69,8.69,0,0,1-1.45-.13.54.54,0,0,0-.39.1.49.49,0,0,0-.17.36c-.16,5.8-1.44,6.87-1.58,7a.44.44,0,0,0-.32.5.51.51,0,0,0,.5.42h6.81a.51.51,0,0,0,.5-.42A.44.44,0,0,0,19.5,28.05Z"/><path class="cls-4" d="M19.5,28.05c-.14-.11-1.42-1.18-1.58-7a.49.49,0,0,0-.17-.36.54.54,0,0,0-.39-.1,8.66,8.66,0,0,1-1.44.13h0l-.46,0a.48.48,0,0,1,.16.35c.16,5.8,1.43,6.87,1.58,7a.44.44,0,0,1,.32.5A.51.51,0,0,1,17,29h2.31a.51.51,0,0,0,.5-.42A.44.44,0,0,0,19.5,28.05Z"/><path class="cls-1" d="M.79,5.85h0A3.58,3.58,0,0,1,3.61,4.49H7A.47.47,0,0,1,7.46,5V7.05A.47.47,0,0,1,7,7.53H3.61a.56.56,0,0,0-.45.22.58.58,0,0,0-.11.46,9,9,0,0,0,1.93,4,5.79,5.79,0,0,0,2.37,1.58.46.46,0,0,1,.31.34,8.32,8.32,0,0,0,.84,2.26.46.46,0,0,1,0,.5.46.46,0,0,1-.39.2H8a9,9,0,0,1-5.27-2.83A11.8,11.8,0,0,1,.09,8.89,3.58,3.58,0,0,1,.79,5.85Z"/><path class="cls-2" d="M4.83,12.28V12l.15.16a5.79,5.79,0,0,0,2.37,1.58.46.46,0,0,1,.31.34,8.32,8.32,0,0,0,.84,2.26.46.46,0,0,1,0,.5.46.46,0,0,1-.39.2H8a10.16,10.16,0,0,1-2.22-.65A9.45,9.45,0,0,1,4.83,12.28Z"/><path class="cls-2" d="M7.46,5V7.05A.47.47,0,0,1,7,7.53H4.83v-3H7A.47.47,0,0,1,7.46,5Z"/><path class="cls-5" d="M24.84,2.76H7a.47.47,0,0,0-.48.48v9a9.41,9.41,0,1,0,18.81,0v-9A.47.47,0,0,0,24.84,2.76Z"/><path class="cls-6" d="M24.84,2.76H22.62a.47.47,0,0,1,.47.48v9a9.41,9.41,0,0,1-8.29,9.34,8.32,8.32,0,0,0,1.12.07,9.42,9.42,0,0,0,9.4-9.41v-9A.47.47,0,0,0,24.84,2.76Z"/><path class="cls-7" d="M20.06,11.17a1.05,1.05,0,0,0,.27-1.08,1,1,0,0,0-.85-.71l-1.76-.26a.08.08,0,0,1-.07,0l-.79-1.6a1,1,0,0,0-.94-.58h0a1,1,0,0,0-.95.58l-.79,1.6a.08.08,0,0,1-.07,0l-1.76.26a1,1,0,0,0-.85.71,1.05,1.05,0,0,0,.27,1.08L13,12.41a.1.1,0,0,1,0,.09l-.3,1.75a1.05,1.05,0,0,0,1.53,1.11l1.57-.83H16l1.57.83a1.11,1.11,0,0,0,.49.12,1.07,1.07,0,0,0,.62-.2,1,1,0,0,0,.42-1l-.3-1.75a.14.14,0,0,1,0-.09Z"/><path class="cls-8" d="M19.48,9.38,19,9.31,16.74,11.5a.57.57,0,0,0-.17.51l.52,3.11.44.24a1.11,1.11,0,0,0,.49.12,1.07,1.07,0,0,0,.62-.2,1,1,0,0,0,.42-1l-.3-1.75a.14.14,0,0,1,0-.09l1.27-1.24a1.05,1.05,0,0,0,.27-1.08A1,1,0,0,0,19.48,9.38Z"/><path class="cls-5" d="M25.12,31.89A5.14,5.14,0,0,0,20.43,28h-9a5.14,5.14,0,0,0-4.69,3.88.47.47,0,0,0,.07.43.49.49,0,0,0,.39.2h17.5a.48.48,0,0,0,.38-.2A.47.47,0,0,0,25.12,31.89Z"/><path class="cls-6" d="M25.12,31.89A5.14,5.14,0,0,0,20.43,28H16.77a5.14,5.14,0,0,1,4.69,3.88.5.5,0,0,1-.07.43.49.49,0,0,1-.39.2h3.67a.48.48,0,0,0,.38-.2A.47.47,0,0,0,25.12,31.89Z"/><path class="cls-1" d="M25.62,0H6.21a1.86,1.86,0,0,0,0,3.71H25.62a1.86,1.86,0,0,0,0-3.71Z"/><path class="cls-2" d="M25.62,0H23.46a1.86,1.86,0,1,1,0,3.71h2.16a1.86,1.86,0,0,0,0-3.71Z"/></g></g></svg>