<svg xmlns="http://www.w3.org/2000/svg" viewBox="0 0 22.99 23.21"><defs><style>.cls-1{fill:#fcc62d;}.cls-2{fill:#ffd949;}.cls-3{fill:#e4af18;}.cls-4{fill:#57868e;}</style></defs><title>Asset 9cart</title><g id="Layer_2" data-name="Layer 2"><g id="Livello_3" data-name="Livello 3"><circle class="cls-1" cx="11.5" cy="8.49" r="3.09"/><circle class="cls-2" cx="11.5" cy="8.49" r="2.32"/><path class="cls-3" d="M12.51,7.17a2.17,2.17,0,0,0-.19.32h0l0,0a1.66,1.66,0,0,0-1.25,0,1,1,0,0,0-.81,1.05h0v0h0a1.11,1.11,0,0,1,.63-1.42l.06,0L11.09,7h.21A2.17,2.17,0,0,1,12.51,7.17Z"/><path class="cls-3" d="M12.83,8.4a1.68,1.68,0,0,1-.16.18l-.06.05h0l-.22-.12-.26-.1a1.56,1.56,0,0,0-.39-.08.55.55,0,0,0-.28-.24A2,2,0,0,1,12.57,8Z"/><path class="cls-3" d="M11.26,8.16a.44.44,0,1,0,0,.88A.43.43,0,0,0,11.48,9a.44.44,0,0,0-.23-.82Z"/><path class="cls-3" d="M10.72,8.6a.54.54,0,0,1,.54-.54h0a2.38,2.38,0,0,1,1.09-.22,1.07,1.07,0,0,0-.12-.17,1.53,1.53,0,0,0-.86-.11h0a1.43,1.43,0,0,0-.46.15,1.14,1.14,0,0,0-.27.2.93.93,0,0,0-.22.34h0v0h0a.68.68,0,0,0,0,.17.67.67,0,0,0,.07.3v0h0l0,.05a.69.69,0,0,1,.13.45,1,1,0,0,1-.07.35,1,1,0,0,1-.22.34,1,1,0,0,0,.48-.36A1,1,0,0,0,11,9.33a1.52,1.52,0,0,0,0-.24.54.54,0,0,1-.31-.49Z"/><path class="cls-3" d="M12.25,9A.16.16,0,1,1,12,8.89l-.1-.11a0,0,0,0,1,0-.06h0l.2.16.12.09V9A.15.15,0,0,1,12.25,9Z"/><path class="cls-3" d="M12.18,9.61l0,0h-.07l-.15,0h0l-.08,0h0a.57.57,0,0,1-.16-.09.14.14,0,0,1,0-.1V9.28a.66.66,0,0,0,.21.22l.05,0a.79.79,0,0,0,.24.08Z"/><path class="cls-3" d="M12.55,8.74l0,0-.08,0,0,0-.23-.1a.73.73,0,0,1,0,1l-.05,0h0a.73.73,0,0,1-1-.14,1,1,0,0,1-.12.22,1,1,0,0,0,1.62-1Z"/><circle class="cls-1" cx="8.49" cy="8.14" r="3.09"/><circle class="cls-2" cx="8.49" cy="8.14" r="2.32"/><path class="cls-3" d="M9.51,6.82a2.17,2.17,0,0,0-.19.32h0l0,0A1.66,1.66,0,0,0,8,7.14a1,1,0,0,0-.81,1.05h0v0h0a1.11,1.11,0,0,1,.63-1.42l.06,0,.18-.06h.21A2.17,2.17,0,0,1,9.51,6.82Z"/><path class="cls-3" d="M9.82,8a1.68,1.68,0,0,1-.16.18l-.06.05h0l-.22-.12-.26-.1A1.56,1.56,0,0,0,8.72,8a.55.55,0,0,0-.28-.24,2,2,0,0,1,1.12-.14Z"/><path class="cls-3" d="M8.25,7.81a.44.44,0,1,0,0,.88.43.43,0,0,0,.23-.06.44.44,0,0,0-.23-.82Z"/><path class="cls-3" d="M7.71,8.25a.54.54,0,0,1,.54-.54h0A2.38,2.38,0,0,1,9.38,7.5a1.07,1.07,0,0,0-.12-.17,1.53,1.53,0,0,0-.86-.11h0a1.43,1.43,0,0,0-.46.15,1.14,1.14,0,0,0-.27.2.93.93,0,0,0-.22.34h0V8h0a.68.68,0,0,0,0,.17.67.67,0,0,0,.07.3v0h0l0,.05A.69.69,0,0,1,7.63,9a1,1,0,0,1-.07.35,1,1,0,0,1-.22.34,1,1,0,0,0,.48-.36A1,1,0,0,0,8,9a1.52,1.52,0,0,0,0-.24.54.54,0,0,1-.31-.49Z"/><path class="cls-3" d="M9.24,8.67A.16.16,0,1,1,9,8.54l-.1-.11a0,0,0,0,1,0-.06h0l.2.16.12.09v0A.15.15,0,0,1,9.24,8.67Z"/><path class="cls-3" d="M9.17,9.26l0,0H9.06l-.15,0h0l-.08,0h0a.57.57,0,0,1-.16-.09.14.14,0,0,1,0-.1V8.93a.66.66,0,0,0,.21.22l.05,0a.79.79,0,0,0,.24.08Z"/><path class="cls-3" d="M9.54,8.39l0,0-.08,0,0,0-.23-.1a.73.73,0,0,1,0,1l-.05,0h0a.73.73,0,0,1-1-.14,1,1,0,0,1-.12.22,1,1,0,0,0,1.62-1Z"/><circle class="cls-1" cx="10.13" cy="11.31" r="3.09"/><circle class="cls-2" cx="10.13" cy="11.31" r="2.32"/><path class="cls-3" d="M11.14,10a2.17,2.17,0,0,0-.19.32h0l0,0a1.66,1.66,0,0,0-1.25,0,1,1,0,0,0-.81,1.05h0v0h0a1.11,1.11,0,0,1,.63-1.42l.06,0,.18-.06h.21A2.17,2.17,0,0,1,11.14,10Z"/><path class="cls-3" d="M11.46,11.21a1.68,1.68,0,0,1-.16.18l-.06.05h0L11,11.33l-.26-.1a1.56,1.56,0,0,0-.39-.08.55.55,0,0,0-.28-.24,2,2,0,0,1,1.12-.14Z"/><path class="cls-3" d="M9.89,11a.44.44,0,1,0,0,.88.43.43,0,0,0,.23-.06A.44.44,0,0,0,9.89,11Z"/><path class="cls-3" d="M9.35,11.42a.54.54,0,0,1,.54-.54h0A2.38,2.38,0,0,1,11,10.66a1.07,1.07,0,0,0-.12-.17,1.53,1.53,0,0,0-.86-.11h0a1.43,1.43,0,0,0-.46.15,1.14,1.14,0,0,0-.27.2.93.93,0,0,0-.22.34h0v0H9a.68.68,0,0,0,0,.17.67.67,0,0,0,.07.3v0h0l0,.05a.69.69,0,0,1,.13.45,1,1,0,0,1-.07.35,1,1,0,0,1-.22.34,1,1,0,0,0,.48-.36,1,1,0,0,0,.16-.32,1.52,1.52,0,0,0,0-.24.54.54,0,0,1-.31-.49Z"/><path class="cls-3" d="M10.88,11.84a.16.16,0,1,1-.24-.13l-.1-.11a0,0,0,0,1,0-.06h0l.2.16.12.09v0A.15.15,0,0,1,10.88,11.84Z"/><path class="cls-3" d="M10.81,12.43l0,0H10.7l-.15,0h0l-.08,0h0a.57.57,0,0,1-.16-.09.14.14,0,0,1,0-.1v-.11a.66.66,0,0,0,.21.22l.05,0a.79.79,0,0,0,.24.08Z"/><path class="cls-3" d="M11.18,11.55l0,0-.08,0,0,0-.23-.1a.73.73,0,0,1,0,1l-.05,0h0a.73.73,0,0,1-1-.14,1,1,0,0,1-.12.22,1,1,0,0,0,1.62-1Z"/><circle class="cls-1" cx="14.59" cy="12.05" r="3.09"/><circle class="cls-2" cx="14.59" cy="12.05" r="2.32"/><path class="cls-3" d="M15.6,10.72a2.17,2.17,0,0,0-.19.32h0l0,0a1.66,1.66,0,0,0-1.25,0,1,1,0,0,0-.81,1.05h0v0h0a1.11,1.11,0,0,1,.63-1.42l.06,0,.18-.06h.21A2.17,2.17,0,0,1,15.6,10.72Z"/><path class="cls-3" d="M15.92,12a1.68,1.68,0,0,1-.16.18l-.06.05h0l-.22-.12-.26-.1a1.56,1.56,0,0,0-.39-.08.55.55,0,0,0-.28-.24,2,2,0,0,1,1.12-.14Z"/><path class="cls-3" d="M14.35,11.72a.44.44,0,1,0,0,.88.43.43,0,0,0,.23-.06.44.44,0,0,0-.23-.82Z"/><path class="cls-3" d="M13.81,12.16a.54.54,0,0,1,.54-.54h0a2.38,2.38,0,0,1,1.09-.22,1.07,1.07,0,0,0-.12-.17,1.53,1.53,0,0,0-.86-.11h0a1.43,1.43,0,0,0-.46.15,1.14,1.14,0,0,0-.27.2.93.93,0,0,0-.22.34h0v0h0a.67.67,0,0,0,0,.48v0h0l0,.05a.69.69,0,0,1,.13.45,1,1,0,0,1-.07.35,1,1,0,0,1-.22.34,1,1,0,0,0,.48-.36,1,1,0,0,0,.16-.32,1.52,1.52,0,0,0,0-.24.54.54,0,0,1-.31-.49Z"/><path class="cls-3" d="M15.34,12.58a.16.16,0,1,1-.24-.13l-.1-.11a0,0,0,0,1,0-.06h0l.2.16.12.09v0A.15.15,0,0,1,15.34,12.58Z"/><path class="cls-3" d="M15.27,13.17l0,0h-.07l-.15,0h0l-.08,0h0a.57.57,0,0,1-.16-.09.14.14,0,0,1,0-.1v-.11a.66.66,0,0,0,.21.22l.05,0a.79.79,0,0,0,.24.08Z"/><path class="cls-3" d="M15.64,12.3l0,0-.08,0,0,0-.23-.1a.73.73,0,0,1,0,1l-.05,0h0a.73.73,0,0,1-1-.14,1,1,0,0,1-.12.22,1,1,0,0,0,1.62-1Z"/><circle class="cls-1" cx="17.69" cy="11.94" r="3.09"/><circle class="cls-2" cx="17.69" cy="11.94" r="2.32"/><path class="cls-3" d="M18.7,10.62a2.17,2.17,0,0,0-.19.32h0l0,0a1.66,1.66,0,0,0-1.25,0A1,1,0,0,0,16.42,12h0v0h0A1.11,1.11,0,0,1,17,10.55l.06,0,.18-.06h.21A2.17,2.17,0,0,1,18.7,10.62Z"/><path class="cls-3" d="M19,11.84a1.68,1.68,0,0,1-.16.18l-.06.05h0L18.57,12l-.26-.1a1.56,1.56,0,0,0-.39-.08.55.55,0,0,0-.28-.24,2,2,0,0,1,1.12-.14Z"/><path class="cls-3" d="M17.45,11.61a.44.44,0,1,0,0,.88.43.43,0,0,0,.23-.06.44.44,0,0,0-.23-.82Z"/><path class="cls-3" d="M16.91,12a.54.54,0,0,1,.54-.54h0a2.38,2.38,0,0,1,1.09-.22,1.07,1.07,0,0,0-.12-.17,1.53,1.53,0,0,0-.86-.11h0a1.43,1.43,0,0,0-.46.15,1.14,1.14,0,0,0-.27.2.93.93,0,0,0-.22.34h0v0h0a.67.67,0,0,0,0,.48v0h0l0,.05a.69.69,0,0,1,.13.45,1,1,0,0,1-.07.35,1,1,0,0,1-.22.34,1,1,0,0,0,.48-.36,1,1,0,0,0,.16-.32,1.52,1.52,0,0,0,0-.24.54.54,0,0,1-.31-.49Z"/><path class="cls-3" d="M18.43,12.47a.16.16,0,1,1-.24-.13l-.1-.11a0,0,0,0,1,0-.06h0l.2.16.12.09v0A.15.15,0,0,1,18.43,12.47Z"/><path class="cls-3" d="M18.36,13.06l0,0h-.07l-.15,0h0L18,13h0a.57.57,0,0,1-.16-.09.14.14,0,0,1,0-.1v-.11a.66.66,0,0,0,.21.22l.05,0a.79.79,0,0,0,.24.08Z"/><path class="cls-3" d="M18.73,12.19l0,0-.08,0,0,0-.23-.1a.73.73,0,0,1,0,1l-.05,0h0a.73.73,0,0,1-1-.14,1,1,0,0,1-.12.22,1,1,0,0,0,1.62-1Z"/><circle class="cls-1" cx="17.14" cy="8.38" r="3.09"/><circle class="cls-2" cx="17.14" cy="8.38" r="2.32"/><path class="cls-3" d="M18.16,7.06a2.17,2.17,0,0,0-.19.32h0l0,0a1.66,1.66,0,0,0-1.25,0,1,1,0,0,0-.81,1.05h0v0h0A1.11,1.11,0,0,1,16.5,7l.06,0,.18-.06h.21A2.17,2.17,0,0,1,18.16,7.06Z"/><path class="cls-3" d="M18.47,8.29a1.68,1.68,0,0,1-.16.18l-.06.05h0L18,8.41l-.26-.1a1.56,1.56,0,0,0-.39-.08A.55.55,0,0,0,17.09,8a2,2,0,0,1,1.12-.14Z"/><path class="cls-3" d="M16.9,8.05a.44.44,0,1,0,0,.88.43.43,0,0,0,.23-.06.44.44,0,0,0-.23-.82Z"/><path class="cls-3" d="M16.36,8.49A.54.54,0,0,1,16.9,8h0A2.38,2.38,0,0,1,18,7.74a1.07,1.07,0,0,0-.12-.17,1.53,1.53,0,0,0-.86-.11h0a1.43,1.43,0,0,0-.46.15,1.14,1.14,0,0,0-.27.2.93.93,0,0,0-.22.34h0v0h0a.68.68,0,0,0,0,.17.67.67,0,0,0,.07.3v0h0l0,.05a.69.69,0,0,1,.13.45,1,1,0,0,1-.07.35,1,1,0,0,1-.22.34,1,1,0,0,0,.48-.36,1,1,0,0,0,.16-.32,1.52,1.52,0,0,0,0-.24.54.54,0,0,1-.31-.49Z"/><path class="cls-3" d="M17.89,8.91a.16.16,0,1,1-.24-.13l-.1-.11a0,0,0,0,1,0-.06h0l.2.16.12.09v0A.15.15,0,0,1,17.89,8.91Z"/><path class="cls-3" d="M17.82,9.5l0,0h-.07l-.15,0h0l-.08,0h0a.57.57,0,0,1-.16-.09.14.14,0,0,1,0-.1V9.17a.66.66,0,0,0,.21.22l.05,0a.79.79,0,0,0,.24.08Z"/><path class="cls-3" d="M18.19,8.63l0,0-.08,0,0,0-.23-.1a.73.73,0,0,1,0,1l-.05,0h0a.73.73,0,0,1-1-.14,1,1,0,0,1-.12.22,1,1,0,0,0,1.62-1Z"/><circle class="cls-1" cx="13.54" cy="7.19" r="3.44"/><circle class="cls-2" cx="13.54" cy="7.19" r="2.58"/><path class="cls-3" d="M14.68,5.71a2.42,2.42,0,0,0-.22.36h0l0,0A1.85,1.85,0,0,0,13,6.07a1.16,1.16,0,0,0-.9,1.17h0v0h0a1.24,1.24,0,0,1,.7-1.59l.06,0,.2-.06h.24A2.42,2.42,0,0,1,14.68,5.71Z"/><path class="cls-3" d="M15,7.08a1.87,1.87,0,0,1-.17.2l-.07.06h0l-.25-.13-.29-.11A1.74,1.74,0,0,0,13.81,7a.61.61,0,0,0-.32-.27,2.18,2.18,0,0,1,1.25-.15Z"/><path class="cls-3" d="M13.28,6.82a.49.49,0,1,0,0,1,.48.48,0,0,0,.25-.07.49.49,0,0,0-.25-.91Z"/><path class="cls-3" d="M12.68,7.31a.6.6,0,0,1,.6-.6h0a2.65,2.65,0,0,1,1.22-.24,1.2,1.2,0,0,0-.13-.19,1.71,1.71,0,0,0-1-.12h0a1.6,1.6,0,0,0-.52.17,1.27,1.27,0,0,0-.3.22,1,1,0,0,0-.24.38h0l0,.05h0a.75.75,0,0,0,.05.53v0h0l0,.06a.77.77,0,0,1,.15.5,1.16,1.16,0,0,1-.08.39,1.1,1.1,0,0,1-.24.38,1.14,1.14,0,0,0,.53-.4A1.13,1.13,0,0,0,13,8.12,1.69,1.69,0,0,0,13,7.86a.61.61,0,0,1-.35-.55Z"/><path class="cls-3" d="M14.38,7.78a.18.18,0,1,1-.27-.15L14,7.5a0,0,0,0,1,0-.06h0l.23.18.13.1v0A.16.16,0,0,1,14.38,7.78Z"/><path class="cls-3" d="M14.3,8.43l0,0h-.07l-.17,0h0l-.09,0h0a.63.63,0,0,1-.18-.1.15.15,0,0,1-.05-.12V8.06a.73.73,0,0,0,.24.24l.06,0a.88.88,0,0,0,.27.09Z"/><path class="cls-3" d="M14.71,7.46l0,0-.09,0,0,0-.25-.11a.82.82,0,0,1,0,1.16l-.06,0h0A.82.82,0,0,1,13,8.32a1.09,1.09,0,0,1-.14.25,1.08,1.08,0,0,0,1.81-1.1Z"/><circle class="cls-1" cx="10.41" cy="6.5" r="3.64"/><circle class="cls-2" cx="10.41" cy="6.5" r="2.73"/><path class="cls-3" d="M11.61,4.94a2.55,2.55,0,0,0-.23.38h0l0,0a2,2,0,0,0-1.48-.05,1.22,1.22,0,0,0-1,1.24h0v0h0a1.31,1.31,0,0,1,.74-1.68l.07,0,.21-.07h.25A2.56,2.56,0,0,1,11.61,4.94Z"/><path class="cls-3" d="M12,6.39a2,2,0,0,1-.18.22l-.08.06h0l-.26-.14-.31-.12a1.84,1.84,0,0,0-.46-.09A.64.64,0,0,0,10.35,6a2.3,2.3,0,0,1,1.32-.16Z"/><path class="cls-3" d="M10.13,6.11a.52.52,0,1,0,0,1,.51.51,0,0,0,.27-.07.52.52,0,0,0-.27-1Z"/><path class="cls-3" d="M9.49,6.63A.64.64,0,0,1,10.13,6h0a2.81,2.81,0,0,1,1.29-.25,1.26,1.26,0,0,0-.14-.2,1.81,1.81,0,0,0-1-.13h0a1.69,1.69,0,0,0-.55.18,1.34,1.34,0,0,0-.32.24,1.1,1.1,0,0,0-.26.41h0l0,.06h0a.79.79,0,0,0,.06.56v0h0l0,.06a.81.81,0,0,1,.16.53,1.23,1.23,0,0,1-.08.41,1.16,1.16,0,0,1-.26.4,1.2,1.2,0,0,0,.56-.43,1.19,1.19,0,0,0,.18-.38,1.78,1.78,0,0,0,.05-.28.64.64,0,0,1-.37-.58Z"/><path class="cls-3" d="M11.29,7.12A.19.19,0,1,1,11,7l-.12-.14a.05.05,0,0,1,0-.07h0l.24.19.14.11v0A.17.17,0,0,1,11.29,7.12Z"/><path class="cls-3" d="M11.21,7.82l0,.05h-.08l-.18,0h0l-.09,0h0a.67.67,0,0,1-.19-.11.16.16,0,0,1-.06-.12V7.42a.78.78,0,0,0,.25.25l.06,0a.93.93,0,0,0,.29.09Z"/><path class="cls-3" d="M11.65,6.79l0,0-.1-.05,0,0-.27-.11a.86.86,0,0,1-.05,1.23l-.06.05h0a.86.86,0,0,1-1.2-.17A1.15,1.15,0,0,1,9.73,8a1.14,1.14,0,0,0,1.91-1.16Z"/><circle class="cls-1" cx="11.39" cy="13.04" r="3.44"/><circle class="cls-2" cx="11.39" cy="13.04" r="2.58"/><path class="cls-3" d="M12.52,11.56a2.42,2.42,0,0,0-.22.36h0l0,0a1.85,1.85,0,0,0-1.4-.05,1.16,1.16,0,0,0-.9,1.17h0v0h0a1.24,1.24,0,0,1,.7-1.59l.06,0,.2-.06h.24A2.42,2.42,0,0,1,12.52,11.56Z"/><path class="cls-3" d="M12.88,12.93a1.87,1.87,0,0,1-.17.2l-.07.06h0l-.25-.13-.29-.11a1.74,1.74,0,0,0-.44-.09.61.61,0,0,0-.32-.27,2.18,2.18,0,0,1,1.25-.15Z"/><path class="cls-3" d="M11.13,12.67a.49.49,0,1,0,0,1,.48.48,0,0,0,.25-.07.49.49,0,0,0-.25-.91Z"/><path class="cls-3" d="M10.52,13.16a.6.6,0,0,1,.6-.6h0a2.65,2.65,0,0,1,1.22-.24,1.2,1.2,0,0,0-.13-.19,1.71,1.71,0,0,0-1-.12h0a1.6,1.6,0,0,0-.52.17,1.27,1.27,0,0,0-.3.22,1,1,0,0,0-.24.38h0l0,.05h0a.76.76,0,0,0,0,.19.75.75,0,0,0,.08.34v0h0l0,.06a.77.77,0,0,1,.15.5,1.16,1.16,0,0,1-.08.39,1.1,1.1,0,0,1-.24.38,1.14,1.14,0,0,0,.53-.4,1.13,1.13,0,0,0,.17-.36,1.69,1.69,0,0,0,.05-.27.61.61,0,0,1-.35-.55Z"/><path class="cls-3" d="M12.22,13.63a.18.18,0,1,1-.27-.15l-.11-.13a0,0,0,0,1,0-.06h0l.23.18.13.1v0A.16.16,0,0,1,12.22,13.63Z"/><path class="cls-3" d="M12.15,14.28l0,0H12l-.17,0h0l-.09,0h0a.63.63,0,0,1-.18-.1.15.15,0,0,1-.05-.12v-.13a.73.73,0,0,0,.24.24l.06,0a.88.88,0,0,0,.27.09Z"/><path class="cls-3" d="M12.56,13.31l0,0-.09,0,0,0-.25-.11a.82.82,0,0,1,0,1.16l-.06,0h0a.82.82,0,0,1-1.14-.16,1.09,1.09,0,0,1-.14.25,1.08,1.08,0,0,0,1.81-1.1Z"/><circle class="cls-1" cx="14.96" cy="13.06" r="3.44"/><circle class="cls-2" cx="14.96" cy="13.06" r="2.58"/><path class="cls-3" d="M16.09,11.58a2.42,2.42,0,0,0-.22.36h0l0,0a1.85,1.85,0,0,0-1.4-.05,1.16,1.16,0,0,0-.9,1.17h0v0h0a1.24,1.24,0,0,1,.7-1.59l.06,0,.2-.06h.24A2.42,2.42,0,0,1,16.09,11.58Z"/><path class="cls-3" d="M16.45,13a1.87,1.87,0,0,1-.17.2l-.07.06h0L16,13.08,15.66,13a1.74,1.74,0,0,0-.44-.09.61.61,0,0,0-.32-.27,2.18,2.18,0,0,1,1.25-.15Z"/><path class="cls-3" d="M14.7,12.69a.49.49,0,1,0,0,1,.48.48,0,0,0,.25-.07.49.49,0,0,0-.25-.91Z"/><path class="cls-3" d="M14.09,13.18a.6.6,0,0,1,.6-.6h0A2.65,2.65,0,0,1,16,12.34a1.2,1.2,0,0,0-.13-.19,1.71,1.71,0,0,0-1-.12h0a1.6,1.6,0,0,0-.52.17,1.27,1.27,0,0,0-.3.22,1,1,0,0,0-.24.38h0l0,.05h0a.75.75,0,0,0,.05.53v0h0l0,.06A.77.77,0,0,1,14,14a1.16,1.16,0,0,1-.08.39,1.1,1.1,0,0,1-.24.38,1.14,1.14,0,0,0,.53-.4,1.13,1.13,0,0,0,.17-.36,1.69,1.69,0,0,0,.05-.27.61.61,0,0,1-.35-.55Z"/><path class="cls-3" d="M15.8,13.65a.18.18,0,1,1-.27-.15l-.11-.13a0,0,0,0,1,0-.06h0l.23.18.13.1v0A.16.16,0,0,1,15.8,13.65Z"/><path class="cls-3" d="M15.72,14.3l0,0H15.6l-.17,0h0l-.09,0h0a.63.63,0,0,1-.18-.1.15.15,0,0,1-.05-.12v-.13a.73.73,0,0,0,.24.24l.06,0a.88.88,0,0,0,.27.09Z"/><path class="cls-3" d="M16.13,13.33l0,0-.09,0,0,0-.25-.11a.82.82,0,0,1,0,1.16l-.06,0h0a.82.82,0,0,1-1.14-.16,1.09,1.09,0,0,1-.14.25,1.08,1.08,0,0,0,1.81-1.1Z"/><circle class="cls-1" cx="13.54" cy="4.72" r="3.64"/><circle class="cls-2" cx="13.54" cy="4.72" r="2.73"/><path class="cls-3" d="M14.74,3.16a2.55,2.55,0,0,0-.23.38h0l0,0A2,2,0,0,0,13,3.54a1.22,1.22,0,0,0-1,1.24h0v0h0a1.31,1.31,0,0,1,.74-1.68l.07,0L13.06,3h.25A2.56,2.56,0,0,1,14.74,3.16Z"/><path class="cls-3" d="M15.11,4.61a2,2,0,0,1-.18.22l-.08.06h0l-.26-.14-.31-.12a1.84,1.84,0,0,0-.46-.09.64.64,0,0,0-.33-.29,2.3,2.3,0,0,1,1.32-.16Z"/><path class="cls-3" d="M13.26,4.33a.52.52,0,1,0,0,1,.51.51,0,0,0,.27-.07.52.52,0,0,0-.27-1Z"/><path class="cls-3" d="M12.62,4.85a.64.64,0,0,1,.64-.64h0A2.81,2.81,0,0,1,14.59,4a1.26,1.26,0,0,0-.14-.2,1.81,1.81,0,0,0-1-.13h0a1.69,1.69,0,0,0-.55.18,1.34,1.34,0,0,0-.32.24,1.1,1.1,0,0,0-.26.41h0l0,.06h0a.8.8,0,0,0,0,.2.79.79,0,0,0,.08.36v0h0l0,.06a.81.81,0,0,1,.16.53,1.23,1.23,0,0,1-.08.41,1.16,1.16,0,0,1-.26.4,1.2,1.2,0,0,0,.56-.43,1.19,1.19,0,0,0,.18-.38A1.78,1.78,0,0,0,13,5.43a.64.64,0,0,1-.37-.58Z"/><path class="cls-3" d="M14.42,5.34a.19.19,0,1,1-.28-.16L14,5A.05.05,0,0,1,14,5h0l.24.19.14.11v0A.17.17,0,0,1,14.42,5.34Z"/><path class="cls-3" d="M14.34,6l0,.05h-.08L14,6h0l-.09,0h0a.67.67,0,0,1-.19-.11.16.16,0,0,1-.06-.12V5.64a.78.78,0,0,0,.25.25l.06,0a.93.93,0,0,0,.29.09Z"/><path class="cls-3" d="M14.77,5l0,0-.1-.05,0,0-.27-.11A.86.86,0,0,1,14.27,6l-.06.05h0A.86.86,0,0,1,13,5.91a1.15,1.15,0,0,1-.15.26A1.14,1.14,0,0,0,14.77,5Z"/><path class="cls-4" d="M9.59,20.18a1.52,1.52,0,1,0,1.65,1.37,1.52,1.52,0,0,0-1.65-1.37Zm.19,2.07a.57.57,0,1,1,.51-.62.57.57,0,0,1-.51.62Zm0,0"/><path class="cls-4" d="M19.14,19.35a1.93,1.93,0,1,0,2.1,1.74,1.93,1.93,0,0,0-2.1-1.74ZM19.39,22a.72.72,0,1,1,.65-.79.72.72,0,0,1-.65.79Zm0,0"/><path class="cls-4" d="M22,18.23,7.42,19.59a1.12,1.12,0,0,1-1.17-.76L2.43,7.34.72,7.5A.65.65,0,1,1,.59,6.2L2.45,6a1.12,1.12,0,0,1,1.17.76L7.45,18.28l14.41-1.35a.65.65,0,1,1,.12,1.3Zm0,0"/><circle class="cls-1" cx="18.68" cy="4.31" r="4.31"/><circle class="cls-2" cx="18.68" cy="4.31" r="3.23"/><path class="cls-3" d="M20.1,2.46a3,3,0,0,0-.27.45h0l0,.05a2.31,2.31,0,0,0-1.75-.06,1.45,1.45,0,0,0-1.13,1.47h0v0h0a1.55,1.55,0,0,1,.87-2l.08,0,.25-.08h.29A3,3,0,0,1,20.1,2.46Z"/><path class="cls-3" d="M20.54,4.17a2.34,2.34,0,0,1-.22.26l-.09.07h0l-.31-.16-.36-.14A2.17,2.17,0,0,0,19,4.09a.76.76,0,0,0-.4-.34,2.73,2.73,0,0,1,1.57-.19Z"/><path class="cls-3" d="M18.35,3.85a.61.61,0,1,0,0,1.23A.6.6,0,0,0,18.67,5a.61.61,0,0,0-.31-1.14Z"/><path class="cls-3" d="M17.6,4.46a.76.76,0,0,1,.76-.75h.05a3.32,3.32,0,0,1,1.53-.3,1.5,1.5,0,0,0-.16-.24A2.14,2.14,0,0,0,18.57,3h0a2,2,0,0,0-.65.22,1.59,1.59,0,0,0-.38.28,1.3,1.3,0,0,0-.3.48h0V4l0,.07h0a1,1,0,0,0,0,.24.93.93,0,0,0,.1.42l0,0h0l.05.07a1,1,0,0,1,.18.63,1.45,1.45,0,0,1-.1.49,1.38,1.38,0,0,1-.3.47,1.43,1.43,0,0,0,.67-.5A1.41,1.41,0,0,0,18,5.48,2.11,2.11,0,0,0,18,5.14a.76.76,0,0,1-.44-.69Z"/><path class="cls-3" d="M19.73,5a.22.22,0,1,1-.33-.19l-.14-.16a.06.06,0,0,1,0-.08h0l.29.22.17.13V5A.2.2,0,0,1,19.73,5Z"/><path class="cls-3" d="M19.63,5.86l-.06.06h-.09l-.21,0h0l-.11,0h0a.79.79,0,0,1-.22-.13.19.19,0,0,1-.07-.14V5.4a.92.92,0,0,0,.3.3l.07,0a1.1,1.1,0,0,0,.34.11Z"/><path class="cls-3" d="M20.14,4.65l0,0L20,4.57l-.06,0-.32-.13a1,1,0,0,1-.06,1.45l-.07.06h0a1,1,0,0,1-1.42-.2,1.36,1.36,0,0,1-.17.31,1.35,1.35,0,0,0,2.26-1.38Z"/><path class="cls-4" d="M9,17.14l10.89-1c.62-.06.89-.75,1-1.37l1.68-8.42L5.41,8.49,7.76,16c.19.59.63,1.22,1.24,1.16Zm9-2.81.63-5.41a.57.57,0,0,1,1.12.13l-.63,5.41a.57.57,0,0,1-.51.5h-.12a.57.57,0,0,1-.5-.63Zm-2.82.34L15,9.34a.57.57,0,0,1,1.13,0l.12,5.34a.57.57,0,0,1-.51.58h0a.57.57,0,0,1-.58-.55Zm-3.4-5.56a.57.57,0,0,1,.65.47l.87,5.27a.57.57,0,0,1-.47.65h0a.57.57,0,0,1-.61-.47L11.3,9.77a.57.57,0,0,1,.47-.65Zm-3.64.35a.57.57,0,0,1,.71.37L10.46,15a.57.57,0,0,1-.37.71l-.12,0a.57.57,0,0,1-.59-.39l-1.62-5.2a.57.57,0,0,1,.37-.71Zm0,0"/></g></g></svg>