<svg xmlns="http://www.w3.org/2000/svg" viewBox="0 0 42.26 31.61"><defs><style>.cls-1{fill:#fcc62d;}.cls-2{fill:#e4af18;}.cls-3{fill:#ce9912;}.cls-4{fill:#ffd949;}.cls-5{fill:#26a6fe;}.cls-6{fill:#0593fc;}.cls-7{fill:#fff;}.cls-8{fill:#f7cb15;}</style></defs><title>Asset 7circular-clock</title><g id="Layer_2" data-name="Layer 2"><g id="Livello_1" data-name="Livello 1"><path class="cls-1" d="M39,15.92v.67c0,3.78-6.34,6.84-14.16,6.84A22.67,22.67,0,0,1,14,21c.88,3.4,6.83,6.22,14.06,6.22,7.82,0,14.16-3.31,14.16-7.09C42.26,18.5,41,17,39,15.92"/><path class="cls-2" d="M28.1,27.25c-7.83,0-14.17-3.31-14.17-7.09v4.61c0,3.77,6.34,6.84,14.17,6.84s14.16-3.07,14.16-6.84V20.16c0,3.78-6.34,7.09-14.16,7.09"/><path class="cls-3" d="M15.56,28a8.75,8.75,0,0,0,1.09.85V24.31a8.9,8.9,0,0,1-1.09-.88Z"/><path class="cls-3" d="M39.54,24.31v4.52A8.75,8.75,0,0,0,40.63,28V23.43a8.9,8.9,0,0,1-1.09.88"/><path class="cls-3" d="M17.74,29.46c.34.18.71.35,1.09.51V25.5A11,11,0,0,1,17.74,25Z"/><path class="cls-3" d="M37.36,30c.38-.16.74-.33,1.09-.51V25c-.35.19-.71.37-1.09.53Z"/><path class="cls-3" d="M19.92,30.38c.35.12.72.23,1.09.34V26.3l-1.09-.36Z"/><path class="cls-3" d="M35.18,30.72c.37-.11.74-.22,1.09-.34V25.94l-1.09.36Z"/><path class="cls-3" d="M22.65,31.11c.35.07.71.14,1.08.19V26.92q-.56-.09-1.08-.21Z"/><path class="cls-3" d="M32.45,31.3c.37-.05.74-.12,1.1-.19v-4.4c-.36.08-.73.15-1.1.21Z"/><path class="cls-3" d="M25.91,31.55c.36,0,.73.05,1.09.06V27.25c-.36,0-.73,0-1.09-.06Z"/><path class="cls-3" d="M29.18,31.61c.37,0,.74,0,1.09-.06V27.19c-.35,0-.72,0-1.09.06Z"/><path class="cls-2" d="M24.83,19.07C17,19.07,10.66,15.76,10.66,12v4.61c0,3.78,6.34,6.84,14.17,6.84S39,20.37,39,16.59V12c0,3.78-6.34,7.09-14.16,7.09"/><path class="cls-3" d="M12.29,19.81a9.76,9.76,0,0,0,1.09.84V16.13a9.9,9.9,0,0,1-1.09-.87Z"/><path class="cls-3" d="M36.27,16.13v4.52a9.76,9.76,0,0,0,1.09-.84V15.26a9.9,9.9,0,0,1-1.09.87"/><path class="cls-3" d="M14.47,21.28c.34.18.71.35,1.09.51V17.32a11,11,0,0,1-1.09-.53Z"/><path class="cls-3" d="M34.09,21.79c.38-.16.75-.33,1.09-.51V16.79a11,11,0,0,1-1.09.53Z"/><path class="cls-3" d="M16.65,22.2c.35.12.72.23,1.09.34V18.12c-.37-.12-.74-.23-1.09-.36Z"/><path class="cls-3" d="M31.91,22.54c.37-.11.74-.22,1.09-.34V17.76c-.35.13-.72.24-1.09.36Z"/><path class="cls-3" d="M19.38,22.93c.35.07.71.14,1.08.19V18.74q-.55-.09-1.08-.21Z"/><path class="cls-3" d="M29.18,23.12c.37-.05.74-.12,1.09-.19v-4.4c-.35.08-.72.15-1.09.21Z"/><path class="cls-3" d="M22.65,23.37c.35,0,.72.05,1.08.06V19.07c-.36,0-.73,0-1.08-.06Z"/><path class="cls-3" d="M25.91,23.43c.37,0,.74,0,1.09-.06V19c-.35,0-.72,0-1.09.06Z"/><path class="cls-4" d="M38.62,18.15c-1.46,3-7.08,5.28-13.79,5.28a26.39,26.39,0,0,1-6.91-.87c2,1.35,5.49,2.49,10.18,2.49,7.45,0,12-2.89,12-4.89a2.72,2.72,0,0,0-1.46-2"/><path class="cls-4" d="M27.55,18c-7.83,0-14.17-3.06-14.17-6.84V8.06c-1.71,1.08-2.72,2.42-2.72,3.93,0,3.78,6.34,7.08,14.17,7.08a23.1,23.1,0,0,0,9.72-2,26.53,26.53,0,0,1-7,.89"/><path class="cls-2" d="M27.55,13.62c-7.83,0-14.17-3.31-14.17-7.08v4.6c0,3.78,6.34,6.84,14.17,6.84s14.17-3.06,14.17-6.84V6.54c0,3.77-6.34,7.08-14.17,7.08"/><path class="cls-3" d="M15,14.36a9.91,9.91,0,0,0,1.1.84V10.68A10,10,0,0,1,15,9.81Z"/><path class="cls-3" d="M39,10.68V15.2a8.92,8.92,0,0,0,1.09-.84V9.81a9,9,0,0,1-1.09.87"/><path class="cls-3" d="M17.2,15.83q.51.27,1.08.51V11.87a10.83,10.83,0,0,1-1.08-.53Z"/><path class="cls-3" d="M36.81,16.34c.39-.16.75-.33,1.09-.51V11.34a10,10,0,0,1-1.09.53Z"/><path class="cls-3" d="M19.38,16.75l1.08.34V12.67c-.37-.12-.73-.23-1.08-.36Z"/><path class="cls-3" d="M34.63,17.09c.38-.11.74-.22,1.09-.34V12.31c-.35.13-.71.24-1.09.36Z"/><path class="cls-3" d="M22.1,17.48c.36.07.72.14,1.09.19V13.29c-.37-.06-.73-.13-1.09-.21Z"/><path class="cls-3" d="M31.91,17.67c.37-.05.73-.12,1.09-.19v-4.4c-.36.08-.72.15-1.09.21Z"/><path class="cls-3" d="M25.37,17.92c.36,0,.72,0,1.09.06V13.62c-.37,0-.73,0-1.09-.06Z"/><path class="cls-3" d="M28.64,18c.37,0,.73,0,1.09-.06V13.56c-.36,0-.72,0-1.09.06Z"/><path class="cls-1" d="M41.72,6.54c0,3.78-6.34,7.08-14.17,7.08s-14.17-3.3-14.17-7.08S19.72,0,27.55,0,41.72,2.76,41.72,6.54"/><path class="cls-4" d="M27.55,11.43c-7.46,0-12-2.9-12-4.89s4.53-4.91,12-4.91,12,2.92,12,4.91-4.53,4.89-12,4.89"/><path class="cls-2" d="M27.38,2.39A12.74,12.74,0,0,1,31,2.93a4.9,4.9,0,0,0-.76.78h0l-.07.09a10.27,10.27,0,0,0-2.68-.36,8.26,8.26,0,0,0-2.15.23C22,4.38,22.1,6,22.12,6.22v0l0,0v0c-.21-.41-1-2.53,2.47-3.45l.22,0c.23-.06.46-.1.68-.14l.15,0,.17,0h.12l.1,0h.27A10.59,10.59,0,0,1,27.38,2.39Z"/><path class="cls-2" d="M30,4.77a8,8,0,0,1,1.14.07l1,1.08a5,5,0,0,1-.61.44,1,1,0,0,1-.25.12c-.3-.11-.59-.2-.86-.28s-.7-.19-1-.26a9.35,9.35,0,0,0-1.52-.19,2,2,0,0,0-1.08-.59A13.07,13.07,0,0,1,30,4.77Z"/><path class="cls-2" d="M26.09,5.32c.94,0,1.69.49,1.68,1.08a1.1,1.1,0,0,1-.84.91,2.69,2.69,0,0,1-.87.15,2.9,2.9,0,0,1-.61-.08c-.64-.15-1.08-.55-1.07-1S25.16,5.32,26.09,5.32Z"/><path class="cls-2" d="M28.57,6.66l.79.39.45.23,0,.06,0,.09c0,.17-.19.33-.47.37h-.15a.59.59,0,0,1-.57-.29c-.07-.17,0-.34.28-.42l-.39-.28a.08.08,0,0,1,0-.14Z"/><path class="cls-2" d="M27.4,8a2.34,2.34,0,0,0,.81.52l.2.08a5.16,5.16,0,0,0,.94.2l-.2.1-.58-.07-.31-.06-.07,0a2.84,2.84,0,0,1-.62-.23.27.27,0,0,1-.17-.25Z"/><path class="cls-2" d="M27.65,3.83A8.82,8.82,0,0,1,30,4.15a3,3,0,0,1,.44.42H30.1a12.79,12.79,0,0,0-3.86.51H26.1c-1.16,0-2.11.58-2.12,1.31a1.16,1.16,0,0,0,.63,1,2.72,2.72,0,0,0,.57.25,2.09,2.09,0,0,1-.19.58,2.28,2.28,0,0,1-.62.79,4.41,4.41,0,0,1-1.86.87A2.61,2.61,0,0,0,23.37,9a1.76,1.76,0,0,0,.29-.84,1.31,1.31,0,0,0-.49-1.1A.6.6,0,0,1,23,6.94L23,6.89a1.19,1.19,0,0,1-.26-.74,1.14,1.14,0,0,1,.09-.42l.06-.12,0,0v0a2.45,2.45,0,0,1,.86-.83,5.58,5.58,0,0,1,1.06-.49,8.14,8.14,0,0,1,1.79-.36h.12C27,3.84,27.34,3.83,27.65,3.83Z"/><path class="cls-2" d="M29.57,6.3l.88.24.15.06.32.1.1,0a1.47,1.47,0,0,1,.2.78c0,1.31-1.71,2.36-3.78,2.35a5,5,0,0,1-2.71-.75,3.32,3.32,0,0,0,.49-.54,3.48,3.48,0,0,0,2.23.71,4.12,4.12,0,0,0,1.7-.35l.2-.1a1.62,1.62,0,0,0,.95-1.32A1.5,1.5,0,0,0,29.57,6.3Z"/><path class="cls-5" d="M12.09,0A12.09,12.09,0,1,0,24.18,12.09,12.09,12.09,0,0,0,12.09,0Zm0,21.21a9.12,9.12,0,1,1,9.12-9.12A9.12,9.12,0,0,1,12.09,21.21Z"/><path class="cls-6" d="M12.09,1.54A10.55,10.55,0,1,0,22.64,12.09,10.55,10.55,0,0,0,12.09,1.54Zm0,19.67a9.12,9.12,0,1,1,9.12-9.12A9.12,9.12,0,0,1,12.09,21.21Z"/><circle class="cls-7" cx="12.1" cy="12.09" r="9.12"/><path class="cls-6" d="M12.09,13.13a1,1,0,0,1-.74-.3L8.46,9.94A1,1,0,1,1,9.94,8.46l2.15,2.15,4-4a1.06,1.06,0,0,1,1.48,0,1,1,0,0,1,0,1.48l-4.7,4.71a1.06,1.06,0,0,1-.74.3Z"/><path class="cls-5" d="M12.09,13.65a1.57,1.57,0,1,1,1.56-1.56A1.56,1.56,0,0,1,12.09,13.65Z"/><path class="cls-8" d="M12.09,7.07a.7.7,0,0,1-.7-.7V4.68a.7.7,0,1,1,1.4,0V6.37A.71.71,0,0,1,12.09,7.07Z"/><path class="cls-8" d="M12.09,19.83a.7.7,0,0,1-.7-.7V17.44a.7.7,0,0,1,1.4,0v1.69A.71.71,0,0,1,12.09,19.83Z"/><path class="cls-8" d="M16.93,11.91a.7.7,0,0,1,.7-.7h1.68a.7.7,0,1,1,0,1.39H17.63a.69.69,0,0,1-.7-.69Z"/><path class="cls-8" d="M4.17,11.91a.69.69,0,0,1,.69-.7H6.55a.7.7,0,1,1,0,1.39H4.86a.69.69,0,0,1-.69-.69Z"/></g></g></svg>