<?xml version="1.0" encoding="utf-8"?>
<!-- Generator: Adobe Illustrator 24.2.1, SVG Export Plug-In . SVG Version: 6.00 Build 0)  -->
<svg version="1.1" id="Livello_1" xmlns="http://www.w3.org/2000/svg" xmlns:xlink="http://www.w3.org/1999/xlink" x="0px" y="0px"
	 viewBox="0 0 50 50" style="enable-background:new 0 0 50 50;" xml:space="preserve">
<style type="text/css">
	.st0{fill:#2196F3;}
</style>
<g>
	<g>
		<g>
			<g>
				<g>
					<g>
						<path class="st0" d="M13.38,38.44c-2.22,0-4.05,1.83-4.05,4.05c0,2.22,1.83,4.05,4.05,4.05c2.28,0,4.05-1.83,4.05-4.05
							C17.44,40.27,15.6,38.44,13.38,38.44z"/>
						<path class="st0" d="M43.7,38.44c-2.22,0-4.05,1.83-4.05,4.05c0,2.22,1.83,4.05,4.05,4.05c2.28,0,4.05-1.83,4.05-4.05
							C47.76,40.27,45.92,38.44,43.7,38.44z"/>
						<path class="st0" d="M44.54,34.05c0-0.5-0.39-0.83-0.83-0.83H21.44c-0.17,0-0.33,0.06-0.5,0.17l-3.55,2.67
							c-0.39,0.22-0.44,0.78-0.17,1.11c0.17,0.22,0.44,0.33,0.67,0.33c0.17,0,0.33-0.06,0.5-0.11l3.33-2.5H43.7
							C44.2,34.88,44.54,34.55,44.54,34.05z"/>
						<path class="st0" d="M49.87,15.23c-0.11-0.17-0.33-0.28-0.56-0.33L9.88,8.95L9.61,7.79C9,4.73,6.44,3.45,0.83,3.45
							C0.33,3.45,0,3.84,0,4.29c0,0.5,0.39,0.83,0.83,0.83c4.05,0,6.66,0.5,7.22,3.05L8.44,9.9c0,0.06,0,0.06,0,0.06l3.11,14.49
							c0.39,2.44,2.5,4.28,4.94,4.28h26.32c2.44,0,4.5-1.72,4.89-4.28l2.28-8.55C50.03,15.67,49.98,15.39,49.87,15.23z"/>
					</g>
				</g>
			</g>
		</g>
	</g>
</g>
</svg>
