<svg xmlns="http://www.w3.org/2000/svg" viewBox="0 0 15.48 15.48"><defs><style>.cls-3{fill:#e4af18}</style></defs><g id="Layer_2" data-name="Layer 2"><g id="Livello_3" data-name="Livello 3"><circle cx="7.74" cy="7.74" r="7.74" fill="#fcc62d"/><circle cx="7.74" cy="7.74" r="6.12" fill="#ffd949"/><path class="cls-3" d="M10.18 4a5.31 5.31 0 0 0-.46.86.55.55 0 0 0 0 .1 4.31 4.31 0 0 0-3.27.07 2.69 2.69 0 0 0-1.99 2.9V8a2.9 2.9 0 0 1 1.39-3.9L6 4a4.22 4.22 0 0 1 .45-.18H7a5.69 5.69 0 0 1 3.18.18zM11.19 7.17a4.2 4.2 0 0 1-.38.5.7.7 0 0 1-.16.14 5.86 5.86 0 0 0-.59-.27 5.66 5.66 0 0 0-.7-.23 4.43 4.43 0 0 0-1-.14 1.44 1.44 0 0 0-.78-.59 5.1 5.1 0 0 1 2.9-.52zM7.06 6.8A1.14 1.14 0 0 0 6.78 9a1.16 1.16 0 0 0 .42.06 1.22 1.22 0 0 0 .57-.2 1.14 1.14 0 0 0-.71-2.06z"/><path class="cls-3" d="M5.72 8a1.41 1.41 0 0 1 1.33-1.46h.1A6.16 6.16 0 0 1 10 5.81a2.22 2.22 0 0 0-.33-.43 4 4 0 0 0-2.24-.16h-.12a3.5 3.5 0 0 0-1.18.47 3.05 3.05 0 0 0-.68.56 2.53 2.53 0 0 0-.52.93v.18a1.91 1.91 0 0 0 0 .46 1.87 1.87 0 0 0 .23.77v.05l.1.12a1.75 1.75 0 0 1 .41 1.15 2.48 2.48 0 0 1-.13.91 2.71 2.71 0 0 1-.52.92 2.71 2.71 0 0 0 1.51-1.85 3.83 3.83 0 0 0 .08-.64 1.37 1.37 0 0 1-.4-.25 1.39 1.39 0 0 1-.49-1zM9.76 8.89a.41.41 0 0 1-.29.41A.4.4 0 0 1 9 9a.38.38 0 0 1 .16-.45l-.29-.29a.12.12 0 0 1 0-.15l.56.39.33.22v.06a.44.44 0 0 1 0 .11zM9.66 10.43l-.1.12h-.17a2.25 2.25 0 0 1-.4-.06H9l-.21-.05a1.39 1.39 0 0 1-.43-.22.38.38 0 0 1-.14-.26v-.31a1.8 1.8 0 0 0 .58.53l.14.07a2.32 2.32 0 0 0 .65.17z"/><path class="cls-3" d="M10.49 8.1h-.07L10.2 8h-.11a5.65 5.65 0 0 0-.61-.22A1.93 1.93 0 0 1 10.06 9a1.89 1.89 0 0 1-.54 1.45l-.13.12a1.9 1.9 0 0 1-2.68-.22 2.56 2.56 0 0 1-.29.6 2.49 2.49 0 0 0 1.88.68 2.52 2.52 0 0 0 2.38-2.67 2.34 2.34 0 0 0-.19-.86z"/></g></g></svg>