<svg xmlns="http://www.w3.org/2000/svg" viewBox="0 0 19.82 14.91"><defs><style>.cls-1{fill:#848484}</style></defs><g id="Layer_2" data-name="Layer 2"><g id="Livello_3" data-name="Livello 3"><path class="cls-1" d="M18 4.76H7.71A1.82 1.82 0 0 0 5.9 6.57v6.52a1.82 1.82 0 0 0 1.81 1.81H18a1.82 1.82 0 0 0 1.81-1.81V6.57A1.81 1.81 0 0 0 18 4.76zm.84 8.36a.66.66 0 0 1-.66.66H7.69a.66.66 0 0 1-.69-.66V8.53h11.84zm0-6.31H7v-.26a.66.66 0 0 1 .66-.66h10.53a.66.66 0 0 1 .66.66zm0 0"/><path class="cls-1" d="M7.58 3.64H14L12.67 1a1.82 1.82 0 0 0-2.44-.81L1 4.75a1.82 1.82 0 0 0-.81 2.43L3.08 13a1.82 1.82 0 0 0 2.1.95 2.73 2.73 0 0 1-.38-1.4V6.43a2.79 2.79 0 0 1 2.78-2.79zm0 0M8.89 13.07a1.16 1.16 0 0 0 .89-.41 1.18 1.18 0 1 0 0-1.53 1.18 1.18 0 1 0-.89 1.94zm0 0"/></g></g></svg>