<?xml version="1.0" encoding="utf-8"?>
<!-- Generator: Adobe Illustrator 24.2.1, SVG Export Plug-In . SVG Version: 6.00 Build 0)  -->
<svg version="1.1" id="Livello_1" xmlns="http://www.w3.org/2000/svg" xmlns:xlink="http://www.w3.org/1999/xlink" x="0px" y="0px"
	 viewBox="0 0 50 50" style="enable-background:new 0 0 50 50;" xml:space="preserve">
<style type="text/css">
	.st0{fill:#EFEFEF;}
	.st1{fill:#BFBFBF;}
	.st2{fill:#FFCC3B;}
	.st3{fill:#FFF1D2;}
	.st4{fill:#3D2900;}
</style>
<g>
	<g>
		<g>
			<path class="st0" d="M35.64,0c-7.77,0-14.09,5.47-14.09,12.18v11.71h5.38V12.18c0-3.56,3.99-6.56,8.7-6.56
				c4.34,0,8.06,2.54,8.63,5.72h5.42C49.19,5.01,43.08,0,35.64,0z"/>
			<path class="st1" d="M35.64,3c-6.18,0-11.21,4.12-11.21,9.18v11.71h2.51V12.18c0-3.56,3.99-6.56,8.7-6.56
				c4.34,0,8.06,2.54,8.63,5.72h2.53C46.28,6.68,41.47,3,35.64,3z"/>
		</g>
		<path class="st2" d="M29.07,21.13H5.11c-2.64,0-4.79,2.16-4.79,4.79v8.47v0.36v3.27C0.32,44.61,5.71,50,12.3,50h9.58
			c6.59,0,11.98-5.39,11.98-11.98v-3.27v-0.36v-8.47C33.86,23.28,31.71,21.13,29.07,21.13z"/>
		<path class="st3" d="M29.07,21.13H5.11c-2.64,0-4.79,2.16-4.79,4.79v1.92c0-2.64,2.16-4.79,4.79-4.79h23.96
			c2.64,0,4.79,2.16,4.79,4.79v-1.92C33.86,23.28,31.71,21.13,29.07,21.13z"/>
		<path class="st4" d="M20.59,35.44c0-1.94-1.57-3.5-3.5-3.5s-3.5,1.57-3.5,3.5c0,1.29,0.69,2.41,1.73,3.02l-0.38,2.65h4.31
			l-0.38-2.65C19.9,37.85,20.59,36.73,20.59,35.44z"/>
	</g>
</g>
</svg>
