<svg xmlns="http://www.w3.org/2000/svg" viewBox="0 0 32.35 32.36"><defs><style>.cls-1{fill:#3d3a3a;}.cls-2{fill:#bababa;}</style></defs><title>Asset 12logout</title><g id="Layer_2" data-name="Layer 2"><g id="Livello_1" data-name="Livello 1"><path class="cls-1" d="M32.25,14.31a1.26,1.26,0,0,0-.29-.43l-4-4.05a1.36,1.36,0,0,0-1.91,0,1.35,1.35,0,0,0,0,1.91l1.74,1.74H20.22a1.35,1.35,0,1,0,0,2.7h7.53L26,17.92a1.35,1.35,0,0,0,.95,2.3,1.37,1.37,0,0,0,1-.39l4-4a1.21,1.21,0,0,0,.29-.44A1.32,1.32,0,0,0,32.25,14.31Z"/><path class="cls-2" d="M22.92,18.87a1.35,1.35,0,0,0-1.35,1.35V27H16.18V5.39a1.35,1.35,0,0,0-1-1.29L10.53,2.7h11V9.44a1.35,1.35,0,1,0,2.7,0V1.35A1.35,1.35,0,0,0,22.92,0H1.35a.7.7,0,0,0-.14,0A.57.57,0,0,0,1,.06,1.13,1.13,0,0,0,.64.23l-.1,0,0,0A1.32,1.32,0,0,0,.16.72S.14.8.12.84A1.63,1.63,0,0,0,0,1.15s0,.08,0,.12,0,.05,0,.08v27a1.34,1.34,0,0,0,1.08,1.32l13.49,2.7a1.09,1.09,0,0,0,.26,0A1.37,1.37,0,0,0,16.18,31V29.66h6.74a1.35,1.35,0,0,0,1.35-1.35V20.22A1.36,1.36,0,0,0,22.92,18.87Z"/></g></g></svg>