<svg xmlns="http://www.w3.org/2000/svg" viewBox="0 0 41.9 32.21"><defs><style>.cls-1{fill:#998675;}.cls-2{fill:#927266;}.cls-3{fill:#775146;}.cls-4{fill:#ff6d3a;}.cls-5{fill:#ed5729;}.cls-6{fill:#ffb125;}.cls-7{fill:#ff901d;}.cls-8{fill:#6a463d;}.cls-9{fill:#26a6fe;}.cls-10{fill:#0593fc;}.cls-11{fill:#fff;}.cls-12{fill:#f7cb15;}</style></defs><title>Asset 6my-auctions</title><g id="Layer_2" data-name="Layer 2"><g id="Livello_1" data-name="Livello 1"><rect class="cls-1" x="19.56" y="15.69" width="13.24" height="2.45" transform="translate(-2.76 28.48) rotate(-54.65)"/><rect class="cls-2" x="19.06" y="15.95" width="13.24" height="1.22" transform="translate(-2.68 27.92) rotate(-54.65)"/><path class="cls-3" d="M14.94,30.59l2,1.46a.88.88,0,0,0,1.22-.21L24.47,23a.88.88,0,0,0-.21-1.22l-2.05-1.46a.88.88,0,0,0-1.23.21l-6.25,8.81A.88.88,0,0,0,14.94,30.59Z"/><rect class="cls-4" x="27.32" y="2.63" width="8.07" height="13.97" transform="translate(5.37 29.63) rotate(-54.65)"/><rect class="cls-5" x="28.66" y="5.22" width="1.71" height="13.97" transform="translate(2.48 29.22) rotate(-54.65)"/><path class="cls-6" d="M33.76,18.11l1.32.94a1,1,0,0,0,1.36-.23l5.28-7.45A1,1,0,0,0,41.49,10l-1.32-.94a1,1,0,0,0-1.36.23l-5.29,7.45A1,1,0,0,0,33.76,18.11Z"/><path class="cls-7" d="M21.23,9.22l1.31.94a1,1,0,0,0,1.37-.23l5.28-7.45A1,1,0,0,0,29,1.12L27.64.18a1,1,0,0,0-1.37.23L21,7.86A1,1,0,0,0,21.23,9.22Z"/><path class="cls-6" d="M25.76,12.1l5.11,3.62a.85.85,0,0,0,1.19-.21l5.1-7.18A.86.86,0,0,0,37,7.13l-5.1-3.62a.86.86,0,0,0-1.2.21L25.56,10.9A.86.86,0,0,0,25.76,12.1Z"/><path class="cls-8" d="M22.21,20.34l1,.73L16,31.32l-1-.73a.88.88,0,0,1-.21-1.23L21,20.55A.88.88,0,0,1,22.21,20.34Z"/><path class="cls-7" d="M31.85,3.51l1.7,1.21a.86.86,0,0,0-.13.14l-3.6,5.07a1.18,1.18,0,0,0,.28,1.65l3.16,2.24-1.2,1.69h0a.21.21,0,0,1-.06.08h0l-.06.07h0l-.09.06h0l-.09,0h0l-.06,0h0l-.05,0h-.56l0,0h0l-.05,0h0l-.07,0L25.76,12.1a.84.84,0,0,1-.2-1.2l1.69-2.39,3.4-4.79A.86.86,0,0,1,31.85,3.51Z"/><path class="cls-9" d="M12.09.15A12.09,12.09,0,1,0,24.18,12.24,12.09,12.09,0,0,0,12.09.15Zm0,21.21a9.12,9.12,0,1,1,9.12-9.12A9.12,9.12,0,0,1,12.09,21.36Z"/><path class="cls-10" d="M12.09,1.69A10.55,10.55,0,1,0,22.64,12.24,10.55,10.55,0,0,0,12.09,1.69Zm0,19.67a9.12,9.12,0,1,1,9.12-9.12A9.12,9.12,0,0,1,12.09,21.36Z"/><circle class="cls-11" cx="12.1" cy="12.24" r="9.12"/><path class="cls-10" d="M12.09,13.29a1,1,0,0,1-.74-.31L8.46,10.1a1.06,1.06,0,0,1,0-1.48,1,1,0,0,1,1.48,0l2.15,2.14,4-4a1,1,0,0,1,1.48,1.48L12.83,13a1,1,0,0,1-.74.31Z"/><path class="cls-9" d="M12.09,13.81a1.57,1.57,0,1,1,1.56-1.57A1.57,1.57,0,0,1,12.09,13.81Z"/><path class="cls-12" d="M12.09,7.22a.7.7,0,0,1-.7-.7V4.83a.7.7,0,0,1,1.4,0V6.52A.7.7,0,0,1,12.09,7.22Z"/><path class="cls-12" d="M12.09,20a.7.7,0,0,1-.7-.7V17.6a.7.7,0,1,1,1.4,0v1.68A.7.7,0,0,1,12.09,20Z"/><path class="cls-12" d="M16.93,12.06a.7.7,0,0,1,.7-.7h1.68a.7.7,0,0,1,0,1.4H17.63a.7.7,0,0,1-.7-.7Z"/><path class="cls-12" d="M4.17,12.06a.69.69,0,0,1,.69-.7H6.55a.7.7,0,0,1,0,1.4H4.86a.7.7,0,0,1-.69-.7Z"/></g></g></svg>