<svg xmlns="http://www.w3.org/2000/svg" viewBox="0 0 32.42 32.43"><defs><style>.cls-1{fill:#2196f3;}</style></defs><title>Asset 8sync</title><g id="Layer_2" data-name="Layer 2"><g id="Livello_1" data-name="Livello 1"><path class="cls-1" d="M6.24,18.71a7.07,7.07,0,0,1,6.93-8.57h1v3a1,1,0,0,0,.63.93,1,1,0,0,0,1.1-.22L22,7.8a1,1,0,0,0,0-1.41L15.91.3a1,1,0,0,0-1.1-.22,1,1,0,0,0-.63.93v3h-1A13.19,13.19,0,0,0,.12,19a12.63,12.63,0,0,0,4.16,7.85,1,1,0,0,0,1.39-.06l2.81-2.82a1,1,0,0,0,0-1.44A6.82,6.82,0,0,1,6.24,18.71Z"/><path class="cls-1" d="M32.3,13.46a12.63,12.63,0,0,0-4.16-7.85,1,1,0,0,0-1.39.06L23.94,8.49a1,1,0,0,0,0,1.44,6.82,6.82,0,0,1,2.22,3.79,7.09,7.09,0,0,1-6.93,8.58h-1v-3a1,1,0,0,0-.63-.94,1,1,0,0,0-1.1.23l-6.08,6.08a1,1,0,0,0,0,1.42l6.08,6.08a1,1,0,0,0,1.1.22,1,1,0,0,0,.63-.93v-3h1A13.18,13.18,0,0,0,32.3,13.46Z"/></g></g></svg>