<svg xmlns="http://www.w3.org/2000/svg" viewBox="0 0 30.35 32.4"><defs><style>.cls-1{fill:#2196f3;}</style></defs><title>Asset 2tickets</title><g id="Layer_2" data-name="Layer 2"><g id="Livello_1" data-name="Livello 1"><path class="cls-1" d="M27.56,9.8h-.51C26.41,4.3,21.17,0,14.83,0S3.23,4.31,2.6,9.82A2.89,2.89,0,0,0,0,12.77v7.84a2.88,2.88,0,0,0,2.79,3H6a2.88,2.88,0,0,0,2.79-3V12.77A2.88,2.88,0,0,0,6,9.8H4.53C5.18,5.42,9.55,2,14.83,2s9.64,3.4,10.29,7.78h-.75a2.88,2.88,0,0,0-2.79,3v7.84a2.88,2.88,0,0,0,2.79,3H25a5.38,5.38,0,0,1-1.39,3.27,6.36,6.36,0,0,1-4.39,1.57h-1a2.88,2.88,0,0,0-2.79-2.94H13.21a2.88,2.88,0,0,0-2.79,3v1a2.88,2.88,0,0,0,2.79,3h2.21a2.8,2.8,0,0,0,2.61-2h1.4a8,8,0,0,0,5.47-2.12,7.39,7.39,0,0,0,2-4.75h.63a2.88,2.88,0,0,0,2.79-3V12.77a2.88,2.88,0,0,0-2.79-3Z"/></g></g></svg>