<?xml version="1.0" encoding="utf-8"?>
<!-- Generator: Adobe Illustrator 26.0.2, SVG Export Plug-In . SVG Version: 6.00 Build 0)  -->
<svg version="1.1" id="Livello_1" xmlns="http://www.w3.org/2000/svg" xmlns:xlink="http://www.w3.org/1999/xlink" x="0px" y="0px"
	 viewBox="0 0 400 400" style="enable-background:new 0 0 400 400;" xml:space="preserve">
<style type="text/css">
	.st0{fill:url(#SVGID_1_);}
</style>
<linearGradient id="SVGID_1_" gradientUnits="userSpaceOnUse" x1="67.5074" y1="200" x2="332.4926" y2="200">
	<stop  offset="0" style="stop-color:#0053B9"/>
	<stop  offset="1" style="stop-color:#0FCEFD"/>
</linearGradient>
<path class="st0" d="M100.36,300.83c19.18,14.18,73.83,50.32,84.9,57.63l12.91,8.51c0.56,0.37,1.19,0.55,1.83,0.55
	c0.64,0,1.27-0.18,1.83-0.55l13.22-8.71c10.76-7.1,65.4-43.25,84.59-57.43c20.58-15.21,32.86-42.1,32.86-71.93V90.43
	c0-1.84-1.49-3.32-3.32-3.32c-56.91,0-126.44-53.39-127.13-53.93c-1.21-0.93-2.87-0.93-4.07,0c-0.69,0.54-70.22,53.93-127.14,53.93
	c-1.83,0-3.32,1.49-3.32,3.32V228.9C67.51,258.73,79.79,285.62,100.36,300.83z M127.45,175.97c9.08-9.08,23.79-9.08,32.88,0
	l29.15,29.15l58.09-58.08c9.08-9.08,23.79-9.08,32.88,0c9.08,9.08,9.08,23.8,0,32.88l-74.52,74.52c-4.36,4.36-10.28,6.81-16.44,6.81
	c-6.17,0-12.08-2.45-16.44-6.81l-45.58-45.59C118.37,199.77,118.37,185.05,127.45,175.97z"/>
</svg>
