<svg xmlns="http://www.w3.org/2000/svg" xmlns:xlink="http://www.w3.org/1999/xlink" viewBox="0 0 51.16 62.77"><defs><style>.cls-1{fill:url(#Nuovo_campione_sfumatura_3)}</style><linearGradient id="Nuovo_campione_sfumatura_3" x1="48.38" y1="9.41" x2="3.34" y2="41.36" gradientUnits="userSpaceOnUse"><stop offset="0" stop-color="#ffc518"/><stop offset=".26" stop-color="#ffbf1a"/><stop offset=".59" stop-color="#feb01f"/><stop offset=".96" stop-color="#fc9527"/><stop offset="1" stop-color="#fc9228"/></linearGradient><linearGradient id="Nuovo_campione_sfumatura_10" x1="41.02" y1="39.74" x2="41.79" y2="63.22" gradientUnits="userSpaceOnUse"><stop offset="0" stop-color="#1a7ff3"/><stop offset=".25" stop-color="#1594f5"/><stop offset=".76" stop-color="#07cbfa"/><stop offset="1" stop-color="#00e7fc"/></linearGradient><linearGradient id="Nuovo_campione_sfumatura_10-2" x1="9.3" y1="40.78" x2="10.07" y2="64.26" xlink:href="#Nuovo_campione_sfumatura_10"/></defs><g id="Layer_2" data-name="Layer 2"><g id="Livello_3" data-name="Livello 3"><path class="cls-1" d="M51.16 25.58c0-2.19-2.4-4-2.94-6.07s.58-4.89-.48-6.72-4.08-2.27-5.59-3.79-1.92-4.5-3.78-5.58-4.63.08-6.72-.48S27.77 0 25.58 0s-4 2.4-6.07 2.94-4.89-.58-6.72.48S10.52 7.5 9 9s-4.5 1.93-5.58 3.79.08 4.63-.48 6.72S0 23.39 0 25.58s2.4 4 2.94 6.07-.58 4.89.48 6.72S7.5 40.64 9 42.15s1.92 4.51 3.78 5.59 4.63-.08 6.72.48 3.88 2.94 6.07 2.94 4-2.4 6.07-2.94 4.89.58 6.72-.48 2.27-4.08 3.78-5.59 4.51-1.92 5.59-3.78-.08-4.63.48-6.72 2.95-3.88 2.95-6.07zm-25.58 17.9a17.9 17.9 0 1 1 17.9-17.9 17.92 17.92 0 0 1-17.9 17.9z"/><path d="M42.54 45.6a8.33 8.33 0 0 1-3.09 4 6.41 6.41 0 0 1-3.28.77c-.58 0-1.14 0-1.68-.09s-1-.07-1.37-.07a3.3 3.3 0 0 0-.92.1 2.54 2.54 0 0 0-.45.17l7.1 12.3 3.37-8.36 8.93 1.26-7.1-12.3a2.52 2.52 0 0 0-.38.3 7.67 7.67 0 0 0-1.13 1.92z" fill="url(#Nuovo_campione_sfumatura_10)"/><path d="M18 50.2c-.42 0-.88 0-1.37.07s-1.1.09-1.67.09a6.42 6.42 0 0 1-3.29-.77 8.33 8.33 0 0 1-3.09-4 7.67 7.67 0 0 0-1.13-1.93 2.53 2.53 0 0 0-.38-.31L0 55.67l8.93-1.26 3.37 8.36 7.1-12.3a2.54 2.54 0 0 0-.4-.17 3.25 3.25 0 0 0-1-.1z" fill="url(#Nuovo_campione_sfumatura_10-2)"/><path class="cls-1" d="M25.58 10.9a14.68 14.68 0 1 0 14.68 14.68A14.69 14.69 0 0 0 25.58 10.9zm9.9 12l-4.4 4.29a.51.51 0 0 0-.14.44l1 6.06a.5.5 0 0 1-.73.53l-5.44-2.86a.47.47 0 0 0-.46 0l-5.44 2.86a.5.5 0 0 1-.73-.53l1-6.06a.48.48 0 0 0-.14-.44l-4.4-4.29a.5.5 0 0 1 .4-.9l6-.89a.47.47 0 0 0 .37-.27l2.72-5.51a.5.5 0 0 1 .9 0l2.72 5.51a.47.47 0 0 0 .38.27l6.08.89a.5.5 0 0 1 .31.85z"/></g></g></svg>